<svg width="24" height="24" viewBox="0 0 24 24" fill="none" xmlns="http://www.w3.org/2000/svg">
<path d="M12 5L12 5.5H11.9998L11.999 5.5L11.9958 5.5L11.9826 5.50001L11.9306 5.5001L11.7308 5.50081C11.5577 5.50163 11.3085 5.50326 11.0045 5.50653C10.3962 5.51307 9.56958 5.52615 8.69496 5.55228C7.81954 5.57843 6.9001 5.61754 6.10504 5.67585C5.29604 5.73518 4.65809 5.81182 4.3202 5.90276L12 5ZM12 5L12.0001 5.5H12.0003L12.001 5.5L12.0043 5.5L12.0175 5.50001L12.0695 5.5001L12.2693 5.50081C12.4424 5.50163 12.6916 5.50326 12.9956 5.50653C13.6038 5.51307 14.4305 5.52615 15.3051 5.55228C16.1805 5.57843 17.1 5.61754 17.895 5.67585C18.704 5.73518 19.342 5.81182 19.6799 5.90276C20.0195 5.99433 20.3291 6.17343 20.5779 6.42216C20.822 6.66626 20.999 6.96902 21.0921 7.30121M12 5L21.0921 7.30121M21.0921 7.30121C21.3735 8.85034 21.5101 10.4223 21.5 11.9968L21.5 11.9968L21.5 12.0032C21.5101 13.5777 21.3735 15.1497 21.0921 16.6988C20.999 17.031 20.822 17.3337 20.5779 17.5778C20.3292 17.8265 20.0196 18.0056 19.68 18.0972C19.3422 18.1881 18.7042 18.2648 17.895 18.3242C17.1 18.3825 16.1805 18.4216 15.3051 18.4477C14.4305 18.4738 13.6038 18.4869 12.9956 18.4935C12.6916 18.4967 12.4424 18.4984 12.2693 18.4992L12.0695 18.4999L12.0175 18.5L12.0043 18.5L12.001 18.5H12.0003H12.0001L12 19L12 18.5H11.9998H11.999L11.9958 18.5L11.9826 18.5L11.9306 18.4999L11.7308 18.4992C11.5577 18.4984 11.3085 18.4967 11.0045 18.4935C10.3962 18.4869 9.56958 18.4738 8.69496 18.4477C7.81954 18.4216 6.9001 18.3825 6.10504 18.3242C5.29589 18.2648 4.65786 18.1881 4.32002 18.0972C3.98047 18.0056 3.67088 17.8265 3.4222 17.5778C3.17811 17.3337 3.00107 17.031 2.90801 16.6988C2.6266 15.1497 2.49001 13.5777 2.50002 12.0032L2.50006 12.0032L2.50002 11.9968C2.49001 10.4223 2.6266 8.85034 2.90801 7.3012C3.00107 6.96902 3.17811 6.66626 3.4222 6.42216C3.67088 6.17348 3.98047 5.9944 4.32002 5.90281L21.0921 7.30121ZM9.50003 14.65V15.4809L10.2342 15.0918L15.2342 12.4418L16.0677 12L15.2342 11.5582L10.2342 8.90821L9.50003 8.51912V9.35V14.65Z" fill="black" stroke="black"/>
</svg>
