<svg width="24" height="24" viewBox="0 0 24 24" fill="none" xmlns="http://www.w3.org/2000/svg">
<path d="M11.7353 7.23604L11.98 7.37334L12.2247 7.23604L16.97 4.57334L21.46 7.09278V14.1072L11.98 19.4267L2.5 14.1072V7.09278L6.99 4.57334L11.7353 7.23604ZM10 12.5H10.5V12V10V9.5H10H8.5V8V7.5H8H6H5.5V8V9.5H4H3.5V10V12V12.5H4H5.5V14V14.5H6H8H8.5V14V12.5H10ZM13.5 12.5C13.5 13.6061 14.3939 14.5 15.5 14.5C16.6061 14.5 17.5 13.6061 17.5 12.5C17.5 11.3939 16.6061 10.5 15.5 10.5C14.3939 10.5 13.5 11.3939 13.5 12.5ZM16.5 9.5C16.5 10.6061 17.3939 11.5 18.5 11.5C19.6061 11.5 20.5 10.6061 20.5 9.5C20.5 8.39386 19.6061 7.5 18.5 7.5C17.3939 7.5 16.5 8.39386 16.5 9.5Z" fill="black" stroke="black"/>
</svg>
