<svg width="24" height="24" viewBox="0 0 24 24" fill="none" xmlns="http://www.w3.org/2000/svg">
<path d="M21.58 7.19C21.4657 6.76589 21.242 6.37921 20.9314 6.06861C20.6208 5.75801 20.2341 5.53436 19.81 5.42C18.25 5 12 5 12 5C12 5 5.75003 5 4.19003 5.42C3.76592 5.53436 3.37925 5.75801 3.06865 6.06861C2.75804 6.37921 2.53439 6.76589 2.42003 7.19C2.13039 8.77673 1.98978 10.3871 2.00003 12C1.98978 13.6129 2.13039 15.2233 2.42003 16.81C2.53439 17.2341 2.75804 17.6208 3.06865 17.9314C3.37925 18.242 3.76592 18.4656 4.19003 18.58C5.75003 19 12 19 12 19C12 19 18.25 19 19.81 18.58C20.2341 18.4656 20.6208 18.242 20.9314 17.9314C21.242 17.6208 21.4657 17.2341 21.58 16.81C21.8697 15.2233 22.0103 13.6129 22 12C22.0103 10.3871 21.8697 8.77673 21.58 7.19ZM10 14.65V9.35L15 12L10 14.65Z" fill="white"/>
</svg>
