<svg width="20" height="20" viewBox="0 0 20 20" fill="none" xmlns="http://www.w3.org/2000/svg">
<path d="M8.33325 16.6666H11.6666C11.6666 17.5833 10.9166 18.3333 9.99992 18.3333C9.08325 18.3333 8.33325 17.5833 8.33325 16.6666ZM16.6666 14.4583V15.8333H3.33325V14.4583L4.99992 12.8916V8.59993C4.99992 6.1666 6.29992 4.24993 8.33325 3.6166V3.29993C8.33325 2.1166 9.57492 1.2166 10.8249 1.83326C11.3666 2.09993 11.6666 2.6916 11.6666 3.29993V3.62493C13.6999 4.24993 14.9999 6.17493 14.9999 8.60826V12.8999L16.6666 14.4583ZM15.8333 14.8083L14.1666 13.2416V8.68326C14.1666 6.62493 13.1749 5.04993 11.5583 4.43326C10.5083 3.9916 9.35825 4.0166 8.35825 4.45826C6.79158 5.0916 5.83325 6.65826 5.83325 8.68326V13.2416L4.16659 14.8083V14.9999H15.8333V14.8083Z" fill="black"/>
</svg>
