<svg width="20" height="20" viewBox="0 0 20 20" fill="none" xmlns="http://www.w3.org/2000/svg">
<path d="M17.3917 16.8083L12.7333 12.15C13.625 11.125 14.1667 9.79167 14.1667 8.33333C14.1667 5.10833 11.5583 2.5 8.33333 2.5C5.10833 2.5 2.5 5.10833 2.5 8.33333C2.5 11.5583 5.10833 14.1667 8.33333 14.1667C9.79167 14.1667 11.125 13.625 12.15 12.7417L16.8083 17.4L17.3917 16.8083ZM8.33333 13.3333C5.575 13.3333 3.33333 11.0917 3.33333 8.33333C3.33333 5.575 5.575 3.33333 8.33333 3.33333C11.0917 3.33333 13.3333 5.575 13.3333 8.33333C13.3333 11.0917 11.0917 13.3333 8.33333 13.3333Z" fill="black"/>
</svg>
